<svg width="48" height="48" viewBox="0 0 48 48" fill="none" xmlns="http://www.w3.org/2000/svg">
<g clip-path="url(#clip0)">
<path d="M45.3477 0.00195312H2.64919C1.18708 0.00195312 0 1.18668 0 2.65119V45.3503C0 46.8149 1.18708 48.0012 2.64919 48.0012H25.6368V29.413H19.3821V22.168H25.6368V16.8252C25.6368 10.6266 29.4217 7.24941 34.9524 7.24941C37.604 7.24941 39.8778 7.44779 40.5409 7.53394V14.0132L36.7046 14.0148C33.6974 14.0148 33.1173 15.4445 33.1173 17.5413V22.1656H40.2919L39.3538 29.4099H33.1165V47.9988H45.3469C46.8106 47.9988 47.9984 46.8109 47.9984 45.3503V2.64961C47.9976 1.18668 46.8113 0.00195312 45.3477 0.00195312Z" fill="white"/>
</g>
<defs>
<clipPath id="clip0">
<rect width="48" height="48" fill="white"/>
</clipPath>
</defs>
</svg>
