<svg width="48" height="48" viewBox="0 0 48 48" fill="none" xmlns="http://www.w3.org/2000/svg">
<path d="M47.9825 23.988C47.9825 27.348 47.9158 30.7214 47.9958 34.0947C48.1425 40.0548 44.3961 44.6548 39.6232 46.7082C37.7034 47.5349 35.6902 47.9615 33.6104 47.9615C27.1043 47.9749 20.5849 48.0549 14.0654 47.9349C9.1592 47.8415 5.13289 45.7882 2.23981 41.7481C0.719943 39.6148 0 37.2014 0 34.5881C0 27.6547 0 20.7346 0 13.8012C0 8.14781 2.75976 4.18777 7.65267 1.61442C9.78582 0.507738 12.0923 0.0277336 14.5054 0.0144001C20.8249 0.0144001 27.1443 -0.0256003 33.4638 0.0277336C38.37 0.067734 42.463 1.94775 45.4761 5.88112C47.1559 8.08115 47.9692 10.6145 47.9692 13.4012C47.9825 16.9346 47.9825 20.4679 47.9825 23.988ZM3.58635 23.988C3.58635 27.5347 3.58635 31.0814 3.58635 34.6281C3.58635 36.2148 3.95965 37.7081 4.77292 39.0415C6.93273 42.5748 10.1858 44.2948 14.2388 44.3615C20.7315 44.4548 27.2243 44.4015 33.7304 44.3748C35.3303 44.3748 36.8768 44.0415 38.3167 43.3615C42.2497 41.4815 44.4361 38.4948 44.4228 34.0147C44.3828 27.148 44.4095 20.2813 44.4095 13.4145C44.4095 11.4678 43.8629 9.6945 42.703 8.12115C40.4765 5.10778 37.3968 3.6411 33.7304 3.6011C27.251 3.5211 20.7715 3.57444 14.2921 3.58777C12.9055 3.58777 11.5723 3.86777 10.2791 4.34778C6.71942 5.66779 3.41304 9.02782 3.55969 13.9745C3.66635 17.3212 3.58635 20.6546 3.58635 23.988Z" fill="white"/>
<path d="M23.901 34.2422C17.7415 34.2422 12.7819 29.2688 12.7686 23.0821C12.7552 16.9887 17.7548 12.002 23.8743 12.002C30.0071 11.9886 34.9933 16.9754 35.0066 23.1088C35.0066 29.2421 30.0338 34.2289 23.901 34.2422ZM23.901 30.6688C28.0873 30.6688 31.487 27.2688 31.487 23.0954C31.4736 18.962 28.0739 15.5753 23.901 15.5753C19.7147 15.5753 16.2883 18.9487 16.2883 23.1221C16.3016 27.2955 19.7013 30.6822 23.901 30.6688Z" fill="white"/>
<path d="M36.6265 8.61328C37.9331 8.61328 38.9997 9.71996 38.9997 11.0933C38.9863 12.4533 37.9197 13.56 36.6132 13.5467C35.32 13.5333 34.2667 12.44 34.2667 11.1066C34.2534 9.73329 35.32 8.61328 36.6265 8.61328Z" fill="white"/>
</svg>
