<svg width="48" height="48" viewBox="0 0 48 48" fill="none" xmlns="http://www.w3.org/2000/svg">
<path d="M38 0L9.99999 0C4.47999 0 0 4.48 0 10L0 38C0 43.52 4.47999 48 9.99999 48L38 48C43.52 48 48 43.52 48 38L48 10C48 4.48 43.52 0 38 0ZM38.4933 33.9867H34.2267C31.8133 33.9867 31.4133 32.6133 29.4267 30.6267C27.6267 28.8267 26.64 30.2133 26.68 32.76C26.6933 33.44 26.36 33.9867 25.5467 33.9867C23.0133 33.9867 19.3867 34.3467 15.7067 30.3733C11.9467 26.3067 7.98667 18.1467 7.98667 17.3467C7.98667 16.8667 8.37332 16.6533 9.03999 16.6533H13.3867C14.5333 16.6533 14.6267 17.2267 14.9467 17.9467C16.28 20.9867 19.48 27.0933 20.32 23.68C20.8133 21.72 21.0133 17.1867 18.92 16.8C17.7333 16.5867 19.8267 15.3067 22.8533 15.3067C23.6133 15.3067 24.4267 15.3867 25.2667 15.5867C26.8 15.9467 26.8133 16.6267 26.7867 17.64C26.7067 21.44 26.2533 24.0133 27.2533 24.6533C28.2133 25.28 30.7333 21.2133 32.0533 18.0933C32.4133 17.2267 32.4933 16.6533 33.52 16.6533H38.8267C41.6133 16.6533 38.4667 20.6533 36.0667 23.7733C34.1333 26.28 34.24 26.3333 36.48 28.4267C38.08 29.92 39.9867 31.9467 39.9867 33.0933C40 33.64 39.5733 33.9867 38.4933 33.9867Z" fill="white"/>
</svg>
